<svg width="1817" height="1928" viewBox="0 0 1817 1928" fill="none" xmlns="http://www.w3.org/2000/svg">
<g filter="url(#filter0_d)">
<path d="M738.725 -244.255C1080.19 -161.736 718.764 82.6956 947.495 310.259C1157.11 518.809 1644.8 240.313 1601.36 759.521C1571.62 1115 1658.64 1266.23 1929.36 1396.7" stroke="#56CCF2" stroke-width="1.18846"/>
<path d="M757.981 -259.905C1099.44 -177.387 738.02 67.0449 966.751 294.609C1176.37 503.158 1664.06 224.662 1620.62 743.871C1590.88 1099.34 1677.9 1250.58 1948.61 1381.05" stroke="#56CCF2" stroke-width="1.18846"/>
<path d="M777.238 -275.556C1118.7 -193.038 757.277 51.3941 986.008 278.958C1195.63 487.507 1683.32 209.012 1639.88 728.22C1610.14 1083.69 1697.15 1234.93 1967.87 1365.4" stroke="#56CCF2" stroke-width="1.18846"/>
<path d="M796.494 -291.207C1137.96 -208.688 776.533 35.7433 1005.26 263.307C1214.88 471.856 1702.57 193.361 1659.13 712.569C1629.39 1068.04 1716.41 1219.28 1987.13 1349.75" stroke="#56CCF2" stroke-width="1.18846"/>
<path d="M815.751 -306.858C1157.21 -224.339 795.79 20.0925 1024.52 247.656C1234.14 456.206 1721.83 177.71 1678.39 696.918C1648.65 1052.39 1735.67 1203.63 2006.38 1334.1" stroke="#56CCF2" stroke-width="1.18846"/>
<path d="M835.008 -322.509C1176.47 -239.99 815.047 4.44188 1043.78 232.006C1253.4 440.555 1741.09 162.059 1697.65 681.268C1667.91 1036.74 1754.92 1187.98 2025.64 1318.45" stroke="#56CCF2" stroke-width="1.18846"/>
<path d="M854.264 -338.159C1195.73 -255.641 834.303 -11.209 1063.03 216.355C1272.65 424.904 1760.34 146.408 1716.9 665.617C1687.16 1021.09 1774.18 1172.33 2044.9 1302.8" stroke="#56CCF2" stroke-width="1.18846"/>
<path d="M873.52 -353.81C1214.98 -271.292 853.559 -26.8598 1082.29 200.704C1291.91 409.253 1779.6 130.758 1736.16 649.966C1706.42 1005.44 1793.44 1156.68 2064.15 1287.15" stroke="#56CCF2" stroke-width="1.18846"/>
<path d="M892.777 -369.461C1234.24 -286.942 872.816 -42.5105 1101.55 185.053C1311.17 393.603 1798.86 115.107 1755.42 634.315C1725.67 989.789 1812.69 1141.03 2083.41 1271.5" stroke="#56CCF2" stroke-width="1.18846"/>
<path d="M912.033 -385.112C1253.5 -302.593 892.072 -58.1612 1120.8 169.403C1330.42 377.952 1818.11 99.4563 1774.67 618.664C1744.93 974.138 1831.95 1125.37 2102.67 1255.85" stroke="#56CCF2" stroke-width="1.18846"/>
<path d="M931.29 -400.763C1272.75 -318.244 911.329 -73.8122 1140.06 153.752C1349.68 362.301 1837.37 83.8053 1793.93 603.014C1764.19 958.487 1851.21 1109.72 2121.92 1240.2" stroke="#56CCF2" stroke-width="1.18846"/>
<path d="M950.546 -416.413C1292.01 -333.895 930.585 -89.4628 1159.32 138.101C1368.93 346.65 1856.62 68.1547 1813.18 587.363C1783.44 942.837 1870.46 1094.07 2141.18 1224.54" stroke="#56CCF2" stroke-width="1.18846"/>
<path d="M969.803 -432.064C1311.26 -349.545 949.842 -105.114 1178.57 122.45C1388.19 330.999 1875.88 52.5039 1832.44 571.712C1802.7 927.186 1889.72 1078.42 2160.43 1208.89" stroke="#56CCF2" stroke-width="1.18846"/>
<path d="M989.059 -447.715C1330.52 -365.196 969.098 -120.764 1197.83 106.799C1407.45 315.349 1895.14 36.8532 1851.7 556.061C1821.96 911.535 1908.97 1062.77 2179.69 1193.24" stroke="#56CCF2" stroke-width="1.18846"/>
<path d="M1008.32 -463.365C1349.78 -380.847 988.354 -136.415 1217.09 91.1487C1426.7 299.698 1914.39 21.2024 1870.95 540.411C1841.21 895.884 1928.23 1047.12 2198.95 1177.59" stroke="#56CCF2" stroke-width="1.18846"/>
<path d="M1027.57 -479.016C1369.03 -396.498 1007.61 -152.066 1236.34 75.4978C1445.96 284.047 1933.65 5.55156 1890.21 524.76C1860.47 880.234 1947.49 1031.47 2218.2 1161.94" stroke="#56CCF2" stroke-width="1.18846"/>
<path d="M1046.83 -494.667C1388.29 -412.148 1026.87 -167.717 1255.6 59.8471C1465.22 268.396 1952.91 -10.0992 1909.47 509.109C1879.73 864.583 1966.74 1015.82 2237.46 1146.29" stroke="#56CCF2" stroke-width="1.18846"/>
<path d="M1066.08 -510.318C1407.55 -427.799 1046.12 -183.367 1274.85 44.1963C1484.47 252.746 1972.16 -25.75 1928.72 493.458C1898.98 848.932 1986 1000.17 2256.72 1130.64" stroke="#56CCF2" stroke-width="1.18846"/>
<path d="M1085.34 -525.969C1426.8 -443.45 1065.38 -199.018 1294.11 28.5455C1503.73 237.095 1991.42 -41.4008 1947.98 477.807C1918.24 833.281 2005.26 984.517 2275.97 1114.99" stroke="#56CCF2" stroke-width="1.18846"/>
<path d="M1104.6 -541.619C1446.06 -459.101 1084.64 -214.669 1313.37 12.8948C1522.99 221.444 2010.68 -57.0515 1967.24 462.157C1937.5 817.631 2024.51 968.867 2295.23 1099.34" stroke="#56CCF2" stroke-width="1.18846"/>
</g>
<defs>
<filter id="filter0_d" x="734.46" y="-654.395" width="1565.14" height="2171.81" filterUnits="userSpaceOnUse" color-interpolation-filters="sRGB">
<feFlood flood-opacity="0" result="BackgroundImageFix"/>
<feColorMatrix in="SourceAlpha" type="matrix" values="0 0 0 0 0 0 0 0 0 0 0 0 0 0 0 0 0 0 127 0"/>
<feOffset dy="4"/>
<feGaussianBlur stdDeviation="2"/>
<feColorMatrix type="matrix" values="0 0 0 0 0 0 0 0 0 0 0 0 0 0 0 0 0 0 0.25 0"/>
<feBlend mode="normal" in2="BackgroundImageFix" result="effect1_dropShadow"/>
<feBlend mode="normal" in="SourceGraphic" in2="effect1_dropShadow" result="shape"/>
</filter>
</defs>
</svg>
